<svg width="95" height="45" viewBox="0 0 95 45" fill="none" xmlns="http://www.w3.org/2000/svg">
<path d="M0 27.0165H2.83292V40.9072H0V27.0165Z" fill="#83C5BE"/>
<path d="M4.47606 36.148C4.47419 35.1503 4.76834 34.1744 5.32129 33.3439C5.87424 32.5134 6.66113 31.8656 7.58239 31.4825C8.50359 31.0994 9.51779 30.9982 10.4966 31.1917C11.4754 31.3852 12.3748 31.8647 13.0809 32.5696C13.7871 33.2744 14.2683 34.1729 14.4636 35.1513C14.659 36.1297 14.5597 37.1441 14.1783 38.0661C13.7969 38.988 13.1506 39.7761 12.3211 40.3306C11.4917 40.8852 10.5164 41.1811 9.51869 41.1811C8.85509 41.1887 8.19679 41.0638 7.58219 40.8136C6.96761 40.5635 6.40912 40.1932 5.93948 39.7244C5.46984 39.2557 5.09849 38.6979 4.8472 38.0837C4.59591 37.4696 4.46973 36.8115 4.47606 36.148ZM11.7094 36.148C11.6983 35.7173 11.5604 35.2994 11.313 34.9467C11.0656 34.5939 10.7197 34.322 10.3185 34.1648C9.91729 34.0076 9.47869 33.9723 9.05759 34.0631C8.63639 34.1539 8.25139 34.3669 7.95059 34.6754C7.64989 34.9839 7.44679 35.3743 7.36673 35.7977C7.28668 36.221 7.33326 36.6586 7.50059 37.0556C7.66799 37.4526 7.94869 37.7915 8.30759 38.0298C8.66659 38.2681 9.08779 38.3953 9.51869 38.3954C9.81339 38.4037 10.1067 38.3508 10.38 38.24C10.6533 38.1292 10.9007 37.963 11.1066 37.7518C11.3124 37.5406 11.4723 37.2891 11.576 37.0131C11.6798 36.737 11.7252 36.4425 11.7094 36.148Z" fill="#83C5BE"/>
<path d="M25.9493 31.3887V40.4351C25.9493 43.6363 23.4469 44.9867 20.9162 44.9867C20.0263 45.0529 19.1353 44.8729 18.3408 44.4665C17.5463 44.0601 16.879 43.4429 16.4119 42.6826L18.8482 41.2756C19.0415 41.6652 19.3474 41.9879 19.7262 42.2017C20.105 42.4155 20.5393 42.5107 20.9729 42.4748C21.2581 42.5224 21.5505 42.5038 21.8275 42.4204C22.1045 42.3371 22.3586 42.1913 22.5703 41.9942C22.7819 41.7971 22.9455 41.554 23.0484 41.2837C23.1513 41.0134 23.1907 40.7231 23.1636 40.4351V39.5569C22.8306 39.9667 22.4056 40.2922 21.9233 40.5071C21.441 40.722 20.9148 40.8203 20.3874 40.794C19.1051 40.794 17.8754 40.2846 16.9686 39.3779C16.0619 38.4712 15.5525 37.2414 15.5525 35.9591C15.5525 34.6768 16.0619 33.4471 16.9686 32.5404C17.8754 31.6337 19.1051 31.1243 20.3874 31.1243C20.9145 31.1002 21.4399 31.1995 21.9219 31.4142C22.4039 31.629 22.8291 31.9533 23.1636 32.3613V31.417L25.9493 31.3887ZM23.1636 35.9591C23.1825 35.4999 23.0635 35.0455 22.8221 34.6543C22.5806 34.2632 22.2277 33.9532 21.8087 33.7643C21.3897 33.5753 20.9237 33.516 20.4707 33.594C20.0177 33.6719 19.5984 33.8836 19.2667 34.2017C18.9349 34.5199 18.7059 34.93 18.6091 35.3793C18.5122 35.8286 18.552 36.2967 18.7233 36.7232C18.8946 37.1498 19.1895 37.5153 19.5702 37.7729C19.9509 38.0306 20.3999 38.1684 20.8595 38.1688C21.1596 38.19 21.4607 38.1482 21.7435 38.0459C22.0264 37.9436 22.2847 37.7833 22.5018 37.5751C22.7188 37.3669 22.8899 37.1155 23.0039 36.8372C23.1179 36.5589 23.1723 36.2598 23.1636 35.9591Z" fill="#83C5BE"/>
<path d="M27.583 36.148C27.5811 35.1503 27.8753 34.1744 28.4282 33.3439C28.9812 32.5134 29.7681 31.8656 30.6893 31.4825C31.6105 31.0994 32.6247 30.9982 33.6035 31.1917C34.5823 31.3852 35.4817 31.8647 36.1879 32.5696C36.894 33.2744 37.3752 34.1729 37.5706 35.1513C37.7659 36.1297 37.6666 37.1441 37.2852 38.0661C36.9038 38.988 36.2575 39.7761 35.4281 40.3306C34.5986 40.8852 33.6233 41.1811 32.6256 41.1811C31.9621 41.1887 31.3037 41.0638 30.6891 40.8136C30.0745 40.5635 29.516 40.1932 29.0464 39.7244C28.5768 39.2557 28.2054 38.6979 27.9541 38.0837C27.7028 37.4696 27.5766 36.8115 27.583 36.148ZM34.8164 36.148C34.8052 35.7173 34.6673 35.2994 34.4199 34.9467C34.1725 34.5939 33.8266 34.322 33.4254 34.1648C33.0243 34.0076 32.5857 33.9723 32.1645 34.0631C31.7433 34.1539 31.3583 34.3669 31.0575 34.6754C30.7568 34.9839 30.5537 35.3743 30.4736 35.7977C30.3936 36.221 30.4402 36.6586 30.6075 37.0556C30.7749 37.4526 31.0556 37.7915 31.4145 38.0298C31.7735 38.2681 32.1947 38.3953 32.6256 38.3954C32.9188 38.401 33.21 38.3462 33.4811 38.2342C33.7521 38.1222 33.9972 37.9556 34.201 37.7447C34.4048 37.5339 34.5629 37.2832 34.6656 37.0085C34.7682 36.7338 34.8131 36.4408 34.7975 36.148H34.8164Z" fill="#83C5BE"/>
<path d="M38.981 28.839C38.981 28.4991 39.0818 28.1668 39.2706 27.8842C39.4595 27.6016 39.7279 27.3813 40.0419 27.2512C40.356 27.1211 40.7015 27.0871 41.0349 27.1534C41.3683 27.2197 41.6745 27.3834 41.9149 27.6237C42.1553 27.8641 42.3189 28.1703 42.3852 28.5037C42.4516 28.8371 42.4175 29.1827 42.2875 29.4967C42.1574 29.8107 41.9371 30.0792 41.6545 30.268C41.3718 30.4568 41.0396 30.5576 40.6996 30.5576C40.2446 30.5552 39.8089 30.3733 39.4871 30.0515C39.1653 29.7298 38.9835 29.2941 38.981 28.839ZM39.2737 31.3886H42.1066V40.9072H39.2737V31.3886Z" fill="#83C5BE"/>
<path d="M54.4579 36.148C54.4922 36.7772 54.4018 37.407 54.1918 38.0011C53.9817 38.5952 53.6563 39.1419 53.2341 39.6097C52.8119 40.0775 52.3014 40.4572 51.7319 40.7269C51.1624 40.9966 50.5452 41.151 49.9158 41.1812C49.3874 41.2065 48.8598 41.1157 48.3704 40.915C47.8809 40.7143 47.4414 40.4087 47.0829 40.0197V44.7412H44.25V31.3887H47.0829V32.2858C47.4414 31.8968 47.8809 31.5912 48.3704 31.3905C48.8598 31.1898 49.3874 31.099 49.9158 31.1243C50.5444 31.1545 51.1608 31.3086 51.7296 31.5777C52.2985 31.8469 52.8086 32.2257 53.2306 32.6925C53.6527 33.1593 53.9783 33.7048 54.1889 34.2978C54.3996 34.8908 54.491 35.5196 54.4579 36.148ZM51.625 36.148C51.6138 35.7048 51.4728 35.2746 51.2195 34.9107C50.9662 34.5469 50.6118 34.2652 50.2001 34.1008C49.7884 33.9363 49.3374 33.8962 48.9032 33.9855C48.4689 34.0747 48.0703 34.2894 47.7568 34.6029C47.4433 34.9164 47.2287 35.3149 47.1394 35.7492C47.0502 36.1835 47.0903 36.6344 47.2547 37.0461C47.4192 37.4578 47.7008 37.8123 48.0647 38.0655C48.4286 38.3188 48.8588 38.4598 49.302 38.471C49.6113 38.4907 49.9212 38.4439 50.211 38.3339C50.5007 38.2238 50.7635 38.053 50.9818 37.833C51.2 37.6129 51.3687 37.3487 51.4764 37.0581C51.584 36.7675 51.6283 36.4572 51.6061 36.148H51.625Z" fill="#83C5BE"/>
<path d="M63.2778 38.0554C63.2778 40.2462 61.3892 41.181 59.3117 41.181C58.4818 41.2545 57.6489 41.0779 56.9202 40.674C56.1916 40.2701 55.6004 39.6574 55.2229 38.9147L57.697 37.5077C57.7974 37.8512 58.0124 38.15 58.3061 38.3544C58.5999 38.5588 58.9547 38.6566 59.3117 38.6314C60.0011 38.6314 60.341 38.4142 60.341 38.0365C60.341 36.9883 55.6195 37.5455 55.6195 34.2593C55.6195 32.1818 57.3759 31.1336 59.3967 31.1336C60.1424 31.111 60.8806 31.2881 61.5348 31.6468C62.189 32.0054 62.7353 32.5325 63.1173 33.1733L60.6338 34.4765C60.5241 34.2271 60.3443 34.0149 60.1163 33.8657C59.8883 33.7165 59.622 33.6367 59.3495 33.636C58.8585 33.636 58.5563 33.8249 58.5563 34.1743C58.5941 35.2602 63.2778 34.5331 63.2778 38.0554Z" fill="#83C5BE"/>
<path d="M73.7029 31.3887V40.9073H70.8699V40.0197C70.5404 40.4141 70.1222 40.7249 69.6495 40.9268C69.1769 41.1287 68.6631 41.2158 68.1503 41.1812C66.2617 41.1812 64.5903 39.8119 64.5903 37.234V31.3887H67.4232V36.8185C67.3983 37.0499 67.4253 37.2839 67.5021 37.5036C67.5789 37.7233 67.7036 37.9231 67.8673 38.0886C68.0309 38.2541 68.2294 38.381 68.4482 38.4602C68.667 38.5395 68.9008 38.5689 69.1324 38.5466C70.1712 38.5466 70.8983 37.9422 70.8983 36.5919V31.3887H73.7029Z" fill="#83C5BE"/>
<path d="M90.077 35.0714V40.9072H87.244V35.317C87.244 34.3727 86.7813 33.7494 85.8748 33.7494C84.9683 33.7494 84.3828 34.4199 84.3828 35.5436V40.9072H81.5499V35.317C81.5499 34.3727 81.0966 33.7494 80.1806 33.7494C79.2647 33.7494 78.6981 34.4199 78.6981 35.5436V40.9072H75.8652V31.3887H78.6981V32.2669C78.9942 31.879 79.3825 31.5713 79.8278 31.3718C80.2731 31.1722 80.7612 31.0871 81.2477 31.1243C81.7363 31.1005 82.2228 31.2038 82.6596 31.4238C83.0965 31.6439 83.4689 31.9734 83.7407 32.3802C84.0567 31.9549 84.4754 31.6166 84.9576 31.397C85.4398 31.1774 85.9698 31.0835 86.498 31.1243C88.6511 31.1243 90.077 32.6918 90.077 35.0714Z" fill="#83C5BE"/>
<path d="M92.4947 31.3321C93.6629 31.3321 94.6099 30.385 94.6099 29.2168C94.6099 28.0486 93.6629 27.1016 92.4947 27.1016C91.3265 27.1016 90.3794 28.0486 90.3794 29.2168C90.3794 30.385 91.3265 31.3321 92.4947 31.3321Z" fill="#006D77"/>
<path d="M32.0591 19.8115C37.5299 19.8115 41.9648 15.3765 41.9648 9.90573C41.9648 4.43496 37.5299 0 32.0591 0C26.5883 0 22.1533 4.43496 22.1533 9.90573C22.1533 15.3765 26.5883 19.8115 32.0591 19.8115Z" fill="#006D77"/>
<path d="M54.2029 19.8115C59.6737 19.8115 64.1086 15.3765 64.1086 9.90573C64.1086 4.43496 59.6737 0 54.2029 0C48.7321 0 44.2971 4.43496 44.2971 9.90573C44.2971 15.3765 48.7321 19.8115 54.2029 19.8115Z" fill="#E29578"/>
<path d="M19.8208 0H0.0187988V19.802H19.8208V0Z" fill="#006D77"/>
</svg>
