<svg width="695" height="710" viewBox="0 0 695 710" fill="none" xmlns="http://www.w3.org/2000/svg">
<path d="M595.808 542.471C641.299 485.365 668.636 412.907 668.615 334.299C668.636 242.102 631.133 158.283 570.701 97.9135C510.315 37.4705 426.496 -0.0221777 334.305 9.84217e-06C242.107 -0.0221777 158.295 37.4705 97.9148 97.9135C37.4761 158.283 -0.0207921 242.102 8.64968e-06 334.299C-0.0207921 426.485 37.4761 510.304 97.9148 570.685C158.295 631.128 242.109 668.62 334.306 668.598C404.957 668.62 470.637 646.535 524.676 609.052L625.639 710L694.494 641.145L595.808 542.471ZM517.131 517.13C470.224 563.963 405.823 592.832 334.305 592.853C262.786 592.832 198.385 563.963 151.473 517.13C104.624 470.211 75.7648 405.816 75.744 334.299C75.7648 262.78 104.624 198.385 151.473 151.469C198.385 104.625 262.786 75.7662 334.305 75.7454C405.823 75.7662 470.222 104.625 517.131 151.469C563.99 198.385 592.849 262.782 592.869 334.299C592.849 405.818 563.99 470.211 517.131 517.13Z" fill="black"/>
<path d="M208.472 326.025L200.574 324.926C180.386 322.073 173.141 315.057 173.141 304.743C173.141 293.11 181.478 284.771 196.621 284.771C209.127 284.771 220.318 288.503 232.39 296.406C233.485 297.062 234.584 296.84 235.461 295.74L245.996 279.51C246.873 278.188 246.651 277.312 245.552 276.434C233.706 267.443 215.933 261.513 197.281 261.513C166.557 261.513 146.808 279.509 146.808 306.498C146.808 331.289 163.049 345.121 191.793 349.062L199.692 350.161C220.319 353.014 226.902 360.041 226.902 370.788C226.902 383.299 216.589 392.292 198.814 392.292C182.14 392.292 167.873 384.177 158.22 376.494C157.344 375.618 156.028 375.618 155.15 376.716L141.545 392.514C140.669 393.612 141.107 394.922 141.983 395.811C153.612 406.779 174.894 415.55 196.843 415.55C233.923 415.55 253.018 395.811 253.018 369.256C253.018 343.576 237.213 329.978 208.472 326.025Z" fill="#006D77"/>
<path d="M374.379 263.923H280.903C279.587 263.923 278.711 264.799 278.711 266.121V410.943C278.711 412.265 279.587 413.141 280.903 413.141H374.379C375.701 413.141 376.577 412.265 376.577 410.943V392.081C376.577 390.761 375.701 389.883 374.379 389.883H305.92L304.604 388.561V350.826L305.92 349.506H363.627C364.948 349.506 365.826 348.628 365.826 347.306V328.435C365.826 327.124 364.948 326.248 363.627 326.248H305.92L304.604 324.926V288.503L305.92 287.192H374.379C375.701 287.192 376.577 286.305 376.577 284.994V266.121C376.577 264.799 375.701 263.923 374.379 263.923Z" fill="#006D77"/>
<path d="M456.032 261.513C430.358 261.513 411.048 273.804 403.371 297.504C400.295 306.719 399.419 315.057 399.419 338.536C399.419 362.016 400.295 370.353 403.371 379.567C411.048 403.269 430.359 415.549 456.032 415.549C481.932 415.549 501.226 403.269 508.92 379.567C511.984 370.353 512.872 362.016 512.872 338.536C512.872 315.056 511.984 306.719 508.92 297.504C501.226 273.804 481.93 261.513 456.032 261.513ZM483.896 372.764C479.732 384.831 470.963 392.292 456.03 392.292C441.331 392.292 432.55 384.831 428.382 372.764C426.628 367.28 425.75 359.597 425.75 338.537C425.75 317.244 426.628 309.785 428.382 304.299C432.552 292.232 441.333 284.771 456.03 284.771C470.963 284.771 479.732 292.232 483.896 304.299C485.651 309.783 486.537 317.244 486.537 338.537C486.538 359.597 485.651 367.278 483.896 372.764Z" fill="#006D77"/>
</svg>
